<svg xmlns="http://www.w3.org/2000/svg" width="1440" height="900" viewBox="0 0 1440 900">
<defs>
  <marker id="arrow" markerWidth="10" markerHeight="10" refX="8" refY="5" orient="auto" markerUnits="strokeWidth"><path d="M0,0 L10,5 L0,10 z" fill="#202733"/></marker>
  <marker id="arrowOrange" markerWidth="10" markerHeight="10" refX="8" refY="5" orient="auto" markerUnits="strokeWidth"><path d="M0,0 L10,5 L0,10 z" fill="#FF5A1F"/></marker>
  <filter id="shadow" x="-20%" y="-20%" width="140%" height="150%"><feDropShadow dx="0" dy="5" stdDeviation="7" flood-color="#1D2939" flood-opacity="0.10"/></filter>
  <style>text{font-family:'Microsoft YaHei','Noto Sans CJK SC','PingFang SC',Arial,sans-serif} .title{font-weight:700;fill:#202733} .muted{fill:#667085} .label{font-weight:600;fill:#202733} .small{font-size:18px;fill:#667085}</style>
</defs>
<rect width="100%" height="100%" fill="#FFFFFF"/>
<rect x="0" y="0" width="12" height="900" fill="#FF5A1F"/>
<text x="70" y="74" font-size="34" class="title">智能排课业务闭环</text>
<text x="70" y="108" font-size="18" class="muted">从数据准备到发布、调课与持续复盘的端到端流程</text>
<line x1="70" y1="134" x2="1370" y2="134" stroke="#D9E0EA" stroke-width="2"/>

<rect x="70" y="255" width="170" height="150" rx="18" fill="#FFFFFF" stroke="#D9E0EA" stroke-width="2" filter="url(#shadow)"/>
<circle cx="98" cy="283" r="17" fill="#FF5A1F"/><text x="98" y="289" font-size="15" fill="white" font-weight="700" text-anchor="middle">1</text>
<text x="124" y="292" font-size="20" fill="#202733" font-weight="700" text-anchor="start" class="">数据准备</text>
<text x="155.0" y="325" font-size="17" fill="#667085" font-weight="400" text-anchor="middle">
<tspan x="155.0" dy="0">教师 · 教室</tspan>
<tspan x="155.0" dy="25">班级 · 课程</tspan>
</text>
<path d="M240,330 L292,330" fill="none" stroke="#202733" stroke-width="2.5" marker-end="url(#arrow)"/>
<rect x="300" y="255" width="170" height="150" rx="18" fill="#FFFFFF" stroke="#D9E0EA" stroke-width="2" filter="url(#shadow)"/>
<circle cx="328" cy="283" r="17" fill="#FF5A1F"/><text x="328" y="289" font-size="15" fill="white" font-weight="700" text-anchor="middle">2</text>
<text x="354" y="292" font-size="20" fill="#202733" font-weight="700" text-anchor="start" class="">数据校验</text>
<text x="385.0" y="325" font-size="17" fill="#667085" font-weight="400" text-anchor="middle">
<tspan x="385.0" dy="0">字段完整性</tspan>
<tspan x="385.0" dy="25">引用一致性</tspan>
</text>
<path d="M470,330 L522,330" fill="none" stroke="#202733" stroke-width="2.5" marker-end="url(#arrow)"/>
<rect x="530" y="255" width="170" height="150" rx="18" fill="#FFFFFF" stroke="#FF5A1F" stroke-width="2" filter="url(#shadow)"/>
<circle cx="558" cy="283" r="17" fill="#FF5A1F"/><text x="558" y="289" font-size="15" fill="white" font-weight="700" text-anchor="middle">3</text>
<text x="584" y="292" font-size="20" fill="#202733" font-weight="700" text-anchor="start" class="">生成方案</text>
<text x="615.0" y="325" font-size="17" fill="#667085" font-weight="400" text-anchor="middle">
<tspan x="615.0" dy="0">CP-SAT 求解</tspan>
<tspan x="615.0" dy="25">零硬冲突</tspan>
</text>
<path d="M700,330 L752,330" fill="none" stroke="#202733" stroke-width="2.5" marker-end="url(#arrow)"/>
<rect x="760" y="255" width="170" height="150" rx="18" fill="#FFFFFF" stroke="#D9E0EA" stroke-width="2" filter="url(#shadow)"/>
<circle cx="788" cy="283" r="17" fill="#FF5A1F"/><text x="788" y="289" font-size="15" fill="white" font-weight="700" text-anchor="middle">4</text>
<text x="814" y="292" font-size="20" fill="#202733" font-weight="700" text-anchor="start" class="">教务决策</text>
<text x="845.0" y="325" font-size="17" fill="#667085" font-weight="400" text-anchor="middle">
<tspan x="845.0" dy="0">评分与解释</tspan>
<tspan x="845.0" dy="25">选择方案</tspan>
</text>
<path d="M930,330 L982,330" fill="none" stroke="#202733" stroke-width="2.5" marker-end="url(#arrow)"/>
<rect x="990" y="255" width="170" height="150" rx="18" fill="#FFFFFF" stroke="#D9E0EA" stroke-width="2" filter="url(#shadow)"/>
<circle cx="1018" cy="283" r="17" fill="#FF5A1F"/><text x="1018" y="289" font-size="15" fill="white" font-weight="700" text-anchor="middle">5</text>
<text x="1044" y="292" font-size="20" fill="#202733" font-weight="700" text-anchor="start" class="">课表发布</text>
<text x="1075.0" y="325" font-size="17" fill="#667085" font-weight="400" text-anchor="middle">
<tspan x="1075.0" dy="0">全日周课表</tspan>
<tspan x="1075.0" dy="25">通知相关人</tspan>
</text>
<path d="M1160,330 L1212,330" fill="none" stroke="#202733" stroke-width="2.5" marker-end="url(#arrow)"/>
<rect x="1220" y="255" width="170" height="150" rx="18" fill="#FFFFFF" stroke="#FF5A1F" stroke-width="2" filter="url(#shadow)"/>
<circle cx="1248" cy="283" r="17" fill="#FF5A1F"/><text x="1248" y="289" font-size="15" fill="white" font-weight="700" text-anchor="middle">6</text>
<text x="1274" y="292" font-size="20" fill="#202733" font-weight="700" text-anchor="start" class="">动态调课</text>
<text x="1305.0" y="325" font-size="17" fill="#667085" font-weight="400" text-anchor="middle">
<tspan x="1305.0" dy="0">局部重排</tspan>
<tspan x="1305.0" dy="25">差异清单</tspan>
</text>
<path d="M1305,410 C1305,650 155,650 155,420" fill="none" stroke="#356AE6" stroke-width="3" stroke-dasharray="10 7" marker-end="url(#arrow)"/>
<text x="720" y="625" font-size="18" fill="#356AE6" font-weight="700" text-anchor="middle" class="">版本记录与反馈回流</text>
<rect x="330" y="500" width="330" height="86" rx="14" fill="#EDF3FF" stroke="#356AE6" stroke-width="2"/>
<circle cx="358" cy="528" r="17" fill="#FF5A1F"/><text x="358" y="534" font-size="15" fill="white" font-weight="700" text-anchor="middle">70</text>
<text x="384" y="537" font-size="18" fill="#202733" font-weight="700" text-anchor="start" class="">异常分支</text>
<text x="495.0" y="570" font-size="17" fill="#667085" font-weight="400" text-anchor="middle">
<tspan x="495.0" dy="0">不可行诊断 → 放宽约束 → 重新求解</tspan>
</text>
<rect x="780" y="500" width="330" height="86" rx="14" fill="#EAF8F3" stroke="#20A875" stroke-width="2"/>
<circle cx="808" cy="528" r="17" fill="#FF5A1F"/><text x="808" y="534" font-size="15" fill="white" font-weight="700" text-anchor="middle">80</text>
<text x="834" y="537" font-size="18" fill="#202733" font-weight="700" text-anchor="start" class="">审计分支</text>
<text x="945.0" y="570" font-size="17" fill="#667085" font-weight="400" text-anchor="middle">
<tspan x="945.0" dy="0">保留数据快照 · 方案版本 · 操作日志</tspan>
</text>
<path d="M615,405 L495,498" fill="none" stroke="#356AE6" stroke-width="2.5" marker-end="url(#arrow)" stroke-dasharray="8 6"/>
<rect x="500.0" y="425.5" width="110" height="25" rx="12" fill="white"/><text x="555.0" y="443.5" font-size="14" fill="#667085" text-anchor="middle">无解</text>
<path d="M1075,405 L945,498" fill="none" stroke="#20A875" stroke-width="2.5" marker-end="url(#arrow)" stroke-dasharray="8 6"/>
<rect x="955.0" y="425.5" width="110" height="25" rx="12" fill="white"/><text x="1010.0" y="443.5" font-size="14" fill="#667085" text-anchor="middle">发布</text>
<rect x="590" y="720" width="260" height="36" rx="18" fill="#FFF1EA"/><text x="720.0" y="744" font-size="15" fill="#FF5A1F" font-weight="600" text-anchor="middle">可计算 · 可解释 · 可协同</text>
<text x="1370" y="865" text-anchor="end" font-size="14" fill="#98A2B3">ClassMind · 高途智能排课脑</text></svg>