<svg xmlns="http://www.w3.org/2000/svg" width="1440" height="900" viewBox="0 0 1440 900">
<defs>
  <marker id="arrow" markerWidth="10" markerHeight="10" refX="8" refY="5" orient="auto" markerUnits="strokeWidth"><path d="M0,0 L10,5 L0,10 z" fill="#202733"/></marker>
  <marker id="arrowOrange" markerWidth="10" markerHeight="10" refX="8" refY="5" orient="auto" markerUnits="strokeWidth"><path d="M0,0 L10,5 L0,10 z" fill="#FF5A1F"/></marker>
  <filter id="shadow" x="-20%" y="-20%" width="140%" height="150%"><feDropShadow dx="0" dy="5" stdDeviation="7" flood-color="#1D2939" flood-opacity="0.10"/></filter>
  <style>text{font-family:'Microsoft YaHei','Noto Sans CJK SC','PingFang SC',Arial,sans-serif} .title{font-weight:700;fill:#202733} .muted{fill:#667085} .label{font-weight:600;fill:#202733} .small{font-size:18px;fill:#667085}</style>
</defs>
<rect width="100%" height="100%" fill="#FFFFFF"/>
<rect x="0" y="0" width="12" height="900" fill="#FF5A1F"/>
<text x="70" y="74" font-size="34" class="title">前后端与 API 部署关系</text>
<text x="70" y="108" font-size="18" class="muted">零构建前端通过本地HTTP服务调用业务接口与CP-SAT核心</text>
<line x1="70" y1="134" x2="1370" y2="134" stroke="#D9E0EA" stroke-width="2"/>

<rect x="70" y="175" width="360" height="580" rx="24" fill="#FFF1EA" stroke="#FF5A1F" stroke-width="2"/>
<text x="250" y="215" font-size="24" fill="#FF5A1F" font-weight="700" text-anchor="middle" class="">浏览器前端</text>
<rect x="105" y="255" width="290" height="78" rx="12" fill="#FFFFFF" stroke="#FF5A1F" stroke-width="2"/>
<circle cx="133" cy="283" r="17" fill="#FF5A1F"/><text x="133" y="289" font-size="15" fill="white" font-weight="700" text-anchor="middle">10</text>
<text x="159" y="292" font-size="18" fill="#202733" font-weight="700" text-anchor="start" class="">决策驾驶舱</text>
<text x="250.0" y="325" font-size="17" fill="#667085" font-weight="400" text-anchor="middle">
<tspan x="250.0" dy="0">/</tspan>
</text>
<rect x="105" y="360" width="290" height="78" rx="12" fill="#FFFFFF" stroke="#FF5A1F" stroke-width="2"/>
<circle cx="133" cy="388" r="17" fill="#FF5A1F"/><text x="133" y="394" font-size="15" fill="white" font-weight="700" text-anchor="middle">20</text>
<text x="159" y="397" font-size="18" fill="#202733" font-weight="700" text-anchor="start" class="">智能排课</text>
<text x="250.0" y="430" font-size="17" fill="#667085" font-weight="400" text-anchor="middle">
<tspan x="250.0" dy="0">/schedule.html</tspan>
</text>
<rect x="105" y="465" width="290" height="78" rx="12" fill="#FFFFFF" stroke="#FF5A1F" stroke-width="2"/>
<circle cx="133" cy="493" r="17" fill="#FF5A1F"/><text x="133" y="499" font-size="15" fill="white" font-weight="700" text-anchor="middle">30</text>
<text x="159" y="502" font-size="18" fill="#202733" font-weight="700" text-anchor="start" class="">调课中心</text>
<text x="250.0" y="535" font-size="17" fill="#667085" font-weight="400" text-anchor="middle">
<tspan x="250.0" dy="0">/reschedule.html</tspan>
</text>
<rect x="105" y="570" width="290" height="78" rx="12" fill="#FFFFFF" stroke="#FF5A1F" stroke-width="2"/>
<circle cx="133" cy="598" r="17" fill="#FF5A1F"/><text x="133" y="604" font-size="15" fill="white" font-weight="700" text-anchor="middle">40</text>
<text x="159" y="607" font-size="18" fill="#202733" font-weight="700" text-anchor="start" class="">资源概览</text>
<text x="250.0" y="640" font-size="17" fill="#667085" font-weight="400" text-anchor="middle">
<tspan x="250.0" dy="0">/resources.html</tspan>
</text>
<rect x="540" y="175" width="360" height="580" rx="24" fill="#EDF3FF" stroke="#356AE6" stroke-width="2"/>
<text x="720" y="215" font-size="24" fill="#356AE6" font-weight="700" text-anchor="middle" class="">Python HTTP 服务</text>
<rect x="580" y="252" width="280" height="54" rx="10" fill="white" stroke="#D9E0EA"/><text x="600" y="275" font-size="14" fill="#356AE6" font-weight="700">GET /api/health</text><text x="600" y="295" font-size="13" fill="#667085">健康检查</text>
<rect x="580" y="327" width="280" height="54" rx="10" fill="white" stroke="#D9E0EA"/><text x="600" y="350" font-size="14" fill="#356AE6" font-weight="700">GET /api/demo</text><text x="600" y="370" font-size="13" fill="#667085">业务数据</text>
<rect x="580" y="402" width="280" height="54" rx="10" fill="white" stroke="#D9E0EA"/><text x="600" y="425" font-size="14" fill="#356AE6" font-weight="700">GET /api/plans</text><text x="600" y="445" font-size="13" fill="#667085">三套方案</text>
<rect x="580" y="477" width="280" height="54" rx="10" fill="white" stroke="#D9E0EA"/><text x="600" y="500" font-size="14" fill="#356AE6" font-weight="700">POST /api/solve</text><text x="600" y="520" font-size="13" fill="#667085">通用求解</text>
<rect x="580" y="552" width="280" height="54" rx="10" fill="white" stroke="#D9E0EA"/><text x="600" y="575" font-size="14" fill="#356AE6" font-weight="700">POST /api/reschedule</text><text x="600" y="595" font-size="13" fill="#667085">局部调课</text>
<rect x="580" y="627" width="280" height="54" rx="10" fill="white" stroke="#D9E0EA"/><text x="600" y="650" font-size="14" fill="#356AE6" font-weight="700">GET /api/dashboard</text><text x="600" y="670" font-size="13" fill="#667085">指标负载</text>
<rect x="1010" y="175" width="360" height="580" rx="24" fill="#EAF8F3" stroke="#20A875" stroke-width="2"/>
<text x="1190" y="215" font-size="24" fill="#20A875" font-weight="700" text-anchor="middle" class="">核心服务与数据</text>
<rect x="1050" y="260" width="280" height="64" rx="12" fill="#FFFFFF" stroke="#20A875" stroke-width="2"/>
<circle cx="1078" cy="288" r="17" fill="#FF5A1F"/><text x="1078" y="294" font-size="15" fill="white" font-weight="700" text-anchor="middle">70</text>
<text x="1104" y="297" font-size="17" fill="#202733" font-weight="700" text-anchor="start" class="">service.py</text>
<text x="1190.0" y="330" font-size="17" fill="#667085" font-weight="400" text-anchor="middle">
<tspan x="1190.0" dy="0">业务编排</tspan>
</text>
<rect x="1050" y="350" width="280" height="64" rx="12" fill="#FFFFFF" stroke="#20A875" stroke-width="2"/>
<circle cx="1078" cy="378" r="17" fill="#FF5A1F"/><text x="1078" y="384" font-size="15" fill="white" font-weight="700" text-anchor="middle">80</text>
<text x="1104" y="387" font-size="17" fill="#202733" font-weight="700" text-anchor="start" class="">solver.py</text>
<text x="1190.0" y="420" font-size="17" fill="#667085" font-weight="400" text-anchor="middle">
<tspan x="1190.0" dy="0">CP-SAT 求解</tspan>
</text>
<rect x="1050" y="440" width="280" height="64" rx="12" fill="#FFFFFF" stroke="#20A875" stroke-width="2"/>
<circle cx="1078" cy="468" r="17" fill="#FF5A1F"/><text x="1078" y="474" font-size="15" fill="white" font-weight="700" text-anchor="middle">90</text>
<text x="1104" y="477" font-size="17" fill="#202733" font-weight="700" text-anchor="start" class="">validator.py</text>
<text x="1190.0" y="510" font-size="17" fill="#667085" font-weight="400" text-anchor="middle">
<tspan x="1190.0" dy="0">独立校验</tspan>
</text>
<rect x="1050" y="530" width="280" height="64" rx="12" fill="#FFFFFF" stroke="#20A875" stroke-width="2"/>
<circle cx="1078" cy="558" r="17" fill="#FF5A1F"/><text x="1078" y="564" font-size="15" fill="white" font-weight="700" text-anchor="middle">100</text>
<text x="1104" y="567" font-size="17" fill="#202733" font-weight="700" text-anchor="start" class="">models.py</text>
<text x="1190.0" y="600" font-size="17" fill="#667085" font-weight="400" text-anchor="middle">
<tspan x="1190.0" dy="0">不可变模型</tspan>
</text>
<rect x="1050" y="620" width="280" height="64" rx="12" fill="#FFFFFF" stroke="#20A875" stroke-width="2"/>
<circle cx="1078" cy="648" r="17" fill="#FF5A1F"/><text x="1078" y="654" font-size="15" fill="white" font-weight="700" text-anchor="middle">110</text>
<text x="1104" y="657" font-size="17" fill="#202733" font-weight="700" text-anchor="start" class="">data/demo.json</text>
<text x="1190.0" y="690" font-size="17" fill="#667085" font-weight="400" text-anchor="middle">
<tspan x="1190.0" dy="0">演示数据</tspan>
</text>
<path d="M432,292 L538,292" fill="none" stroke="#FF5A1F" stroke-width="2.5" marker-end="url(#arrow)"/>
<rect x="430.0" y="266.0" width="110" height="25" rx="12" fill="white"/><text x="485.0" y="284.0" font-size="14" fill="#667085" text-anchor="middle">fetch</text>
<path d="M432,397 L538,397" fill="none" stroke="#FF5A1F" stroke-width="2.5" marker-end="url(#arrow)"/>
<rect x="430.0" y="371.0" width="110" height="25" rx="12" fill="white"/><text x="485.0" y="389.0" font-size="14" fill="#667085" text-anchor="middle">fetch</text>
<path d="M432,502 L538,502" fill="none" stroke="#FF5A1F" stroke-width="2.5" marker-end="url(#arrow)"/>
<rect x="430.0" y="476.0" width="110" height="25" rx="12" fill="white"/><text x="485.0" y="494.0" font-size="14" fill="#667085" text-anchor="middle">fetch</text>
<path d="M432,607 L538,607" fill="none" stroke="#FF5A1F" stroke-width="2.5" marker-end="url(#arrow)"/>
<rect x="430.0" y="581.0" width="110" height="25" rx="12" fill="white"/><text x="485.0" y="599.0" font-size="14" fill="#667085" text-anchor="middle">fetch</text>
<path d="M902,280 L1008,280" fill="none" stroke="#20A875" stroke-width="2.5" marker-end="url(#arrow)"/>
<rect x="900.0" y="254.0" width="110" height="25" rx="12" fill="white"/><text x="955.0" y="272.0" font-size="14" fill="#667085" text-anchor="middle">调用</text>
<path d="M902,355 L1008,355" fill="none" stroke="#20A875" stroke-width="2.5" marker-end="url(#arrow)"/>
<rect x="900.0" y="329.0" width="110" height="25" rx="12" fill="white"/><text x="955.0" y="347.0" font-size="14" fill="#667085" text-anchor="middle">调用</text>
<path d="M902,430 L1008,430" fill="none" stroke="#20A875" stroke-width="2.5" marker-end="url(#arrow)"/>
<rect x="900.0" y="404.0" width="110" height="25" rx="12" fill="white"/><text x="955.0" y="422.0" font-size="14" fill="#667085" text-anchor="middle">调用</text>
<path d="M902,505 L1008,505" fill="none" stroke="#20A875" stroke-width="2.5" marker-end="url(#arrow)"/>
<rect x="900.0" y="479.0" width="110" height="25" rx="12" fill="white"/><text x="955.0" y="497.0" font-size="14" fill="#667085" text-anchor="middle">调用</text>
<path d="M902,580 L1008,580" fill="none" stroke="#20A875" stroke-width="2.5" marker-end="url(#arrow)"/>
<rect x="900.0" y="554.0" width="110" height="25" rx="12" fill="white"/><text x="955.0" y="572.0" font-size="14" fill="#667085" text-anchor="middle">调用</text>
<rect x="570" y="790" width="300" height="36" rx="18" fill="#EDF3FF"/><text x="720.0" y="814" font-size="15" fill="#356AE6" font-weight="600" text-anchor="middle">127.0.0.1:8766 · 本地可运行</text>
<text x="1370" y="865" text-anchor="end" font-size="14" fill="#98A2B3">ClassMind · 高途智能排课脑</text></svg>